G04 #@! TF.FileFunction,Paste,Top*
%FSLAX46Y46*%
G04 Gerber Fmt 4.6, Leading zero omitted, Abs format (unit mm)*
G04 Created by KiCad (PCBNEW 4.0.4+dfsg1-stable) date Thu Dec 22 13:39:03 2016*
%MOMM*%
%LPD*%
G01*
G04 APERTURE LIST*
%ADD10C,0.100000*%
%ADD11R,0.800100X0.800100*%
%ADD12R,0.750000X1.200000*%
%ADD13R,0.900000X1.200000*%
%ADD14R,1.200000X0.900000*%
%ADD15R,1.250000X1.500000*%
%ADD16R,1.220000X0.910000*%
G04 APERTURE END LIST*
D10*
D11*
X110810000Y-82819240D03*
X108910000Y-82819240D03*
X109860000Y-84818220D03*
D12*
X158750000Y-80050000D03*
X158750000Y-78150000D03*
D13*
X158820000Y-83860000D03*
X158820000Y-86060000D03*
D14*
X156600000Y-80100000D03*
X154400000Y-80100000D03*
X156600000Y-78350000D03*
X154400000Y-78350000D03*
D15*
X103490000Y-81220000D03*
X103490000Y-78720000D03*
D14*
X106130000Y-83960000D03*
X103930000Y-83960000D03*
D13*
X105710000Y-79020000D03*
X105710000Y-81220000D03*
X140900000Y-86600000D03*
X140900000Y-88800000D03*
X142600000Y-88800000D03*
X142600000Y-86600000D03*
D11*
X142650000Y-90899240D03*
X140750000Y-90899240D03*
X141700000Y-92898220D03*
X146150000Y-90899240D03*
X144250000Y-90899240D03*
X145200000Y-92898220D03*
D14*
X108430000Y-77270000D03*
X110630000Y-77270000D03*
X108430000Y-78930000D03*
X110630000Y-78930000D03*
X108430000Y-80600000D03*
X110630000Y-80600000D03*
D13*
X146000000Y-88800000D03*
X146000000Y-86600000D03*
X146006000Y-106142000D03*
X146006000Y-103942000D03*
X135980000Y-98580000D03*
X135980000Y-96380000D03*
X147530000Y-95814000D03*
X147530000Y-98014000D03*
X149308000Y-95814000D03*
X149308000Y-98014000D03*
D14*
X157800000Y-101900000D03*
X160000000Y-101900000D03*
D16*
X135900000Y-103425000D03*
X135900000Y-106695000D03*
D14*
X136100000Y-111100000D03*
X138300000Y-111100000D03*
M02*
